<svg width="143" height="135" viewBox="0 0 143 135" fill="none" xmlns="http://www.w3.org/2000/svg">
<g filter="url(#filter0_b_1_957)">
<path d="M73.4061 7.13803L26.677 19.6623C9.64817 24.2264 2.58498 36.462 7.1474 53.4937L19.6554 100.186C24.2178 117.218 36.4509 124.282 53.4797 119.718L100.209 107.193C117.238 102.629 124.256 90.4055 119.694 73.3739L107.186 26.6814C102.624 9.64979 90.4349 2.57399 73.4061 7.13803Z" fill="url(#paint0_linear_1_957)"/>
</g>
<g opacity="0.5" filter="url(#filter1_f_1_957)">
<path d="M96.4314 68.3291L87.9456 36.1765C84.8676 24.5139 77.1639 19.2845 67.0345 21.9593L32.7276 31.0184C22.4322 33.737 18.4457 42.0533 21.5237 53.7159L30.0095 85.8685C33.1372 97.7191 40.6574 102.792 50.9528 100.073L85.2597 91.014C95.3891 88.3392 99.5591 80.1797 96.4314 68.3291Z" fill="#FF624D"/>
</g>
<g filter="url(#filter2_b_1_957)">
<mask id="path-3-outside-1_1_957" maskUnits="userSpaceOnUse" x="36.0421" y="27.1652" width="107" height="107" fill="black">
<rect fill="white" x="36.0421" y="27.1652" width="107" height="107"/>
<path d="M114.031 29.1652L65.6576 29.1652C48.0297 29.1652 38.0421 39.1553 38.0421 56.7878V105.127C38.0421 122.76 48.0297 132.75 65.6576 132.75H114.031C131.658 132.75 141.6 122.76 141.6 105.127V56.7878C141.6 39.1553 131.658 29.1652 114.031 29.1652Z"/>
</mask>
<path d="M114.031 29.1652L65.6576 29.1652C48.0297 29.1652 38.0421 39.1553 38.0421 56.7878V105.127C38.0421 122.76 48.0297 132.75 65.6576 132.75H114.031C131.658 132.75 141.6 122.76 141.6 105.127V56.7878C141.6 39.1553 131.658 29.1652 114.031 29.1652Z" fill="#FFAC95" fill-opacity="0.4"/>
<path d="M114.031 30.4647C114.748 30.4647 115.33 29.8829 115.33 29.1652C115.33 28.4475 114.748 27.8657 114.031 27.8657V30.4647ZM114.031 27.8657C113.313 27.8657 112.731 28.4475 112.731 29.1652C112.731 29.8829 113.313 30.4647 114.031 30.4647V27.8657ZM114.031 27.8657L65.6576 27.8657V30.4647L114.031 30.4647V27.8657ZM65.6576 27.8657C56.602 27.8657 49.3288 30.4359 44.3204 35.4455C39.3121 40.4552 36.7426 47.7301 36.7426 56.7878H39.3416C39.3416 48.2131 41.766 41.6767 46.1584 37.2831C50.5508 32.8895 57.0853 30.4647 65.6576 30.4647V27.8657ZM36.7426 56.7878V105.127H39.3416V56.7878H36.7426ZM36.7426 105.127C36.7426 114.185 39.3121 121.46 44.3204 126.47C49.3288 131.479 56.602 134.05 65.6576 134.05V131.451C57.0853 131.451 50.5508 129.026 46.1584 124.632C41.766 120.239 39.3416 113.702 39.3416 105.127H36.7426ZM65.6576 134.05H114.031V131.451H65.6576V134.05ZM114.031 134.05C123.086 134.05 130.349 131.479 135.346 126.469C140.342 121.458 142.9 114.183 142.9 105.127H140.301C140.301 113.704 137.887 120.24 133.506 124.633C129.125 129.026 122.603 131.451 114.031 131.451V134.05ZM142.9 105.127V56.7878H140.301V105.127H142.9ZM142.9 56.7878C142.9 47.7317 140.342 40.4568 135.346 35.4467C130.349 30.436 123.086 27.8657 114.031 27.8657V30.4647C122.603 30.4647 129.125 32.8895 133.506 37.2819C137.887 41.675 140.301 48.2115 140.301 56.7878H142.9Z" fill="url(#paint1_linear_1_957)" mask="url(#path-3-outside-1_1_957)"/>
</g>
<g filter="url(#filter3_bd_1_957)">
<mask id="path-5-inside-2_1_957" fill="white">
<path fill-rule="evenodd" clip-rule="evenodd" d="M90.0042 50.3431C87.6569 50.3431 85.7239 52.2767 85.7239 54.6707V107.246C85.7239 109.594 87.6569 111.527 90.0042 111.527C92.3976 111.527 94.3307 109.594 94.3307 107.246V54.6707C94.3307 52.2767 92.3976 50.3431 90.0042 50.3431ZM65.8406 67.3326C63.4933 67.3326 61.5602 69.2661 61.5602 71.6601V107.247C61.5602 109.595 63.4933 111.529 65.8406 111.529C68.2339 111.529 70.167 109.595 70.167 107.247V71.6601C70.167 69.2661 68.2339 67.3326 65.8406 67.3326ZM109.52 90.4431C109.52 88.0492 111.453 86.1156 113.846 86.1156C116.193 86.1156 118.127 88.0492 118.127 90.4431V107.247C118.127 109.595 116.193 111.528 113.8 111.528C111.453 111.528 109.52 109.595 109.52 107.247V90.4431Z"/>
</mask>
<path fill-rule="evenodd" clip-rule="evenodd" d="M90.0042 50.3431C87.6569 50.3431 85.7239 52.2767 85.7239 54.6707V107.246C85.7239 109.594 87.6569 111.527 90.0042 111.527C92.3976 111.527 94.3307 109.594 94.3307 107.246V54.6707C94.3307 52.2767 92.3976 50.3431 90.0042 50.3431ZM65.8406 67.3326C63.4933 67.3326 61.5602 69.2661 61.5602 71.6601V107.247C61.5602 109.595 63.4933 111.529 65.8406 111.529C68.2339 111.529 70.167 109.595 70.167 107.247V71.6601C70.167 69.2661 68.2339 67.3326 65.8406 67.3326ZM109.52 90.4431C109.52 88.0492 111.453 86.1156 113.846 86.1156C116.193 86.1156 118.127 88.0492 118.127 90.4431V107.247C118.127 109.595 116.193 111.528 113.8 111.528C111.453 111.528 109.52 109.595 109.52 107.247V90.4431Z" fill="url(#paint2_linear_1_957)"/>
<path d="M86.2437 54.6707C86.2437 52.56 87.9478 50.8629 90.0042 50.8629V49.8233C87.3661 49.8233 85.2041 51.9934 85.2041 54.6707H86.2437ZM86.2437 107.246V54.6707H85.2041V107.246H86.2437ZM90.0042 111.007C87.9441 111.007 86.2437 109.307 86.2437 107.246H85.2041C85.2041 109.881 87.3697 112.047 90.0042 112.047V111.007ZM93.8109 107.246C93.8109 109.303 92.114 111.007 90.0042 111.007V112.047C92.6812 112.047 94.8505 109.884 94.8505 107.246H93.8109ZM93.8109 54.6707V107.246H94.8505V54.6707H93.8109ZM90.0042 50.8629C92.1104 50.8629 93.8109 52.5637 93.8109 54.6707H94.8505C94.8505 51.9898 92.6848 49.8233 90.0042 49.8233V50.8629ZM62.08 71.6601C62.08 69.5495 63.7841 67.8524 65.8406 67.8524V66.8128C63.2025 66.8128 61.0404 68.9828 61.0404 71.6601H62.08ZM62.08 107.247V71.6601H61.0404V107.247H62.08ZM65.8406 111.009C63.7805 111.009 62.08 109.308 62.08 107.247H61.0404C61.0404 109.882 63.2061 112.049 65.8406 112.049V111.009ZM69.6472 107.247C69.6472 109.305 67.9504 111.009 65.8406 111.009V112.049C68.5175 112.049 70.6868 109.886 70.6868 107.247H69.6472ZM69.6472 71.6601V107.247H70.6868V71.6601H69.6472ZM65.8406 67.8524C67.9467 67.8524 69.6472 69.5531 69.6472 71.6601H70.6868C70.6868 68.9792 68.5211 66.8128 65.8406 66.8128V67.8524ZM113.846 85.5958C111.166 85.5958 109 87.7622 109 90.4431H110.04C110.04 88.3361 111.74 86.6354 113.846 86.6354V85.5958ZM118.646 90.4431C118.646 87.7658 116.484 85.5958 113.846 85.5958V86.6354C115.903 86.6354 117.607 88.3325 117.607 90.4431H118.646ZM118.646 107.247V90.4431H117.607V107.247H118.646ZM113.8 112.048C116.477 112.048 118.646 109.885 118.646 107.247H117.607C117.607 109.304 115.91 111.009 113.8 111.009V112.048ZM109 107.247C109 109.882 111.166 112.048 113.8 112.048V111.009C111.74 111.009 110.04 109.308 110.04 107.247H109ZM109 90.4431V107.247H110.04V90.4431H109Z" fill="url(#paint3_linear_1_957)" mask="url(#path-5-inside-2_1_957)"/>
</g>
<defs>
<filter id="filter0_b_1_957" x="-11.1018" y="-11.1106" width="149.05" height="149.078" filterUnits="userSpaceOnUse" color-interpolation-filters="sRGB">
<feFlood flood-opacity="0" result="BackgroundImageFix"/>
<feGaussianBlur in="BackgroundImageFix" stdDeviation="8.44676"/>
<feComposite in2="SourceAlpha" operator="in" result="effect1_backgroundBlur_1_957"/>
<feBlend mode="normal" in="SourceGraphic" in2="effect1_backgroundBlur_1_957" result="shape"/>
</filter>
<filter id="filter1_f_1_957" x="3.61641" y="4.37962" width="110.727" height="113.304" filterUnits="userSpaceOnUse" color-interpolation-filters="sRGB">
<feFlood flood-opacity="0" result="BackgroundImageFix"/>
<feBlend mode="normal" in="SourceGraphic" in2="BackgroundImageFix" result="shape"/>
<feGaussianBlur stdDeviation="8.44676" result="effect1_foregroundBlur_1_957"/>
</filter>
<filter id="filter2_b_1_957" x="17.2501" y="8.37314" width="145.142" height="145.169" filterUnits="userSpaceOnUse" color-interpolation-filters="sRGB">
<feFlood flood-opacity="0" result="BackgroundImageFix"/>
<feGaussianBlur in="BackgroundImageFix" stdDeviation="9.74626"/>
<feComposite in2="SourceAlpha" operator="in" result="effect1_backgroundBlur_1_957"/>
<feBlend mode="normal" in="SourceGraphic" in2="effect1_backgroundBlur_1_957" result="shape"/>
</filter>
<filter id="filter3_bd_1_957" x="42.0677" y="30.8506" width="95.5514" height="100.171" filterUnits="userSpaceOnUse" color-interpolation-filters="sRGB">
<feFlood flood-opacity="0" result="BackgroundImageFix"/>
<feGaussianBlur in="BackgroundImageFix" stdDeviation="9.74626"/>
<feComposite in2="SourceAlpha" operator="in" result="effect1_backgroundBlur_1_957"/>
<feColorMatrix in="SourceAlpha" type="matrix" values="0 0 0 0 0 0 0 0 0 0 0 0 0 0 0 0 0 0 127 0" result="hardAlpha"/>
<feOffset dx="6.49751" dy="6.49751"/>
<feGaussianBlur stdDeviation="6.49751"/>
<feColorMatrix type="matrix" values="0 0 0 0 1 0 0 0 0 0.447059 0 0 0 0 0.368627 0 0 0 0.5 0"/>
<feBlend mode="normal" in2="effect1_backgroundBlur_1_957" result="effect2_dropShadow_1_957"/>
<feBlend mode="normal" in="SourceGraphic" in2="effect2_dropShadow_1_957" result="shape"/>
</filter>
<linearGradient id="paint0_linear_1_957" x1="72.5803" y1="68.16" x2="-3.88361" y2="134.453" gradientUnits="userSpaceOnUse">
<stop stop-color="#FFA78F"/>
<stop offset="1" stop-color="#F23E2C"/>
</linearGradient>
<linearGradient id="paint1_linear_1_957" x1="54.5269" y1="41.2329" x2="120.607" y2="123.053" gradientUnits="userSpaceOnUse">
<stop stop-color="white" stop-opacity="0.25"/>
<stop offset="1" stop-color="white" stop-opacity="0"/>
</linearGradient>
<linearGradient id="paint2_linear_1_957" x1="46.9181" y1="95.7564" x2="73.4273" y2="150.202" gradientUnits="userSpaceOnUse">
<stop stop-color="white"/>
<stop offset="1" stop-color="white" stop-opacity="0.2"/>
</linearGradient>
<linearGradient id="paint3_linear_1_957" x1="70.5647" y1="57.4713" x2="110.128" y2="102.772" gradientUnits="userSpaceOnUse">
<stop stop-color="white" stop-opacity="0.25"/>
<stop offset="1" stop-color="white" stop-opacity="0"/>
</linearGradient>
</defs>
</svg>
