<svg width="20" height="20" viewBox="0 0 20 20" fill="none" xmlns="http://www.w3.org/2000/svg">
<g clip-path="url(#clip0_1_458)">
<path d="M10 18.3333C5.39751 18.3333 1.66667 14.6025 1.66667 9.99999C1.66667 5.39749 5.39751 1.66666 10 1.66666C14.6025 1.66666 18.3333 5.39749 18.3333 9.99999C18.3333 14.6025 14.6025 18.3333 10 18.3333ZM8.09167 16.3892C7.26952 14.6453 6.79323 12.7585 6.68917 10.8333H3.385C3.54716 12.1157 4.07827 13.3235 4.91381 14.3097C5.74935 15.296 6.85335 16.0184 8.09167 16.3892ZM8.35834 10.8333C8.48417 12.8658 9.06501 14.775 10 16.46C10.9603 14.7305 11.5212 12.8079 11.6417 10.8333H8.35834ZM16.615 10.8333H13.3108C13.2068 12.7585 12.7305 14.6453 11.9083 16.3892C13.1467 16.0184 14.2507 15.296 15.0862 14.3097C15.9217 13.3235 16.4529 12.1157 16.615 10.8333ZM3.385 9.16666H6.68917C6.79323 7.24148 7.26952 5.35473 8.09167 3.61082C6.85335 3.98156 5.74935 4.70395 4.91381 5.69024C4.07827 6.67652 3.54716 7.88424 3.385 9.16666ZM8.35917 9.16666H11.6408C11.5206 7.19216 10.96 5.2696 10 3.53999C9.03974 5.26953 8.4788 7.19209 8.35834 9.16666H8.35917ZM11.9083 3.61082C12.7305 5.35473 13.2068 7.24148 13.3108 9.16666H16.615C16.4529 7.88424 15.9217 6.67652 15.0862 5.69024C14.2507 4.70395 13.1467 3.98156 11.9083 3.61082Z" fill="black"/>
</g>
<defs>
<clipPath id="clip0_1_458">
<rect width="20" height="20" fill="white"/>
</clipPath>
</defs>
</svg>
