<svg width="20" height="20" viewBox="0 0 20 20" fill="none" xmlns="http://www.w3.org/2000/svg">
<g clip-path="url(#clip0_1_463)">
<path d="M6.07583 17.3533L1.66667 18.3333L2.64667 13.9242C2.00128 12.717 1.6646 11.3689 1.66667 9.99999C1.66667 5.39749 5.3975 1.66666 10 1.66666C14.6025 1.66666 18.3333 5.39749 18.3333 9.99999C18.3333 14.6025 14.6025 18.3333 10 18.3333C8.63113 18.3354 7.28301 17.9987 6.07583 17.3533ZM6.3175 15.5925L6.86167 15.8842C7.82713 16.4001 8.90533 16.6689 10 16.6667C11.3185 16.6667 12.6075 16.2757 13.7038 15.5431C14.8001 14.8106 15.6546 13.7694 16.1592 12.5512C16.6638 11.333 16.7958 9.99259 16.5386 8.69939C16.2813 7.40618 15.6464 6.2183 14.714 5.28594C13.7817 4.35359 12.5938 3.71866 11.3006 3.46142C10.0074 3.20419 8.66695 3.33621 7.44878 3.84079C6.2306 4.34538 5.18941 5.19986 4.45687 6.29619C3.72433 7.39252 3.33333 8.68145 3.33333 9.99999C3.33333 11.1117 3.60417 12.1817 4.11667 13.1383L4.4075 13.6825L3.86167 16.1383L6.3175 15.5925Z" fill="black"/>
</g>
<defs>
<clipPath id="clip0_1_463">
<rect width="20" height="20" fill="white"/>
</clipPath>
</defs>
</svg>
