<svg width="53" height="15" viewBox="0 0 53 15" fill="none" xmlns="http://www.w3.org/2000/svg">
<path d="M11.8037 4.26172C11.2119 3.75781 10.585 3.37988 9.92285 3.12793C9.2666 2.87598 8.5752 2.75 7.84863 2.75C6.44238 2.75 5.29688 3.20117 4.41211 4.10352C3.5332 5.00586 3.09375 6.1748 3.09375 7.61035C3.09375 8.99902 3.52148 10.1445 4.37695 11.0469C5.23828 11.9492 6.32227 12.4004 7.62891 12.4004C8.39062 12.4004 9.11426 12.2656 9.7998 11.9961C10.4912 11.7266 11.1533 11.3193 11.7861 10.7744V13.1387C11.2236 13.543 10.6113 13.8447 9.94922 14.0439C9.28711 14.2432 8.56934 14.3428 7.7959 14.3428C6.81152 14.3428 5.90039 14.1816 5.0625 13.8594C4.23047 13.5371 3.49805 13.0625 2.86523 12.4355C2.23828 11.8203 1.75488 11.0967 1.41504 10.2646C1.08105 9.42676 0.914062 8.53613 0.914062 7.59277C0.914062 6.64941 1.08105 5.76465 1.41504 4.93848C1.75488 4.10645 2.24414 3.37695 2.88281 2.75C3.52148 2.11719 4.25391 1.63965 5.08008 1.31738C5.90625 0.989258 6.7998 0.825195 7.76074 0.825195C8.5166 0.825195 9.2373 0.936523 9.92285 1.15918C10.6084 1.37598 11.2734 1.70703 11.918 2.15234L11.8037 4.26172Z" fill="#00D74A"/>
<path d="M16.1283 12.1104H17.8861C18.8529 12.1104 19.5765 12.0459 20.057 11.917C20.5433 11.7881 20.9652 11.5713 21.3226 11.2666C21.8089 10.8506 22.1722 10.335 22.4125 9.71973C22.6586 9.09863 22.7816 8.37793 22.7816 7.55762C22.7816 6.7373 22.6586 6.01953 22.4125 5.4043C22.1722 4.7832 21.8089 4.26465 21.3226 3.84863C20.9593 3.54395 20.5228 3.32715 20.013 3.19824C19.5091 3.06934 18.7181 3.00488 17.64 3.00488H16.1283V12.1104ZM14.0365 14V1.13281H16.8578C18.6918 1.13281 19.9808 1.22656 20.725 1.41406C21.475 1.5957 22.1312 1.90332 22.6937 2.33691C23.4379 2.90527 24.0004 3.63477 24.3812 4.52539C24.7679 5.41602 24.9613 6.43262 24.9613 7.5752C24.9613 8.71777 24.7679 9.73145 24.3812 10.6162C24.0004 11.4951 23.4379 12.2217 22.6937 12.7959C22.1312 13.2295 21.4896 13.54 20.7689 13.7275C20.0541 13.9092 18.9379 14 17.4203 14H14.0365Z" fill="#00D74A"/>
<path d="M37.4948 7.64551C37.4714 7.5459 37.4333 7.27051 37.3806 6.81934C37.3337 6.44434 37.2927 6.13379 37.2575 5.8877C37.2048 6.18066 37.1286 6.47363 37.029 6.7666C36.9353 7.05957 36.8152 7.3584 36.6687 7.66309L33.3025 14.5186L29.9363 7.52246C29.7956 7.23535 29.6726 6.95703 29.5671 6.6875C29.4675 6.41797 29.3796 6.15137 29.3034 5.8877C29.2976 6.15723 29.2741 6.44141 29.2331 6.74023C29.198 7.0332 29.1423 7.34082 29.0661 7.66309L27.6863 14H25.7614L28.8025 0.587891L32.5993 8.70898C32.6579 8.83789 32.7458 9.05176 32.863 9.35059C32.9861 9.64941 33.1325 10.0186 33.3025 10.458C33.4255 10.0889 33.6189 9.62012 33.8825 9.05176C33.9529 8.89941 34.0056 8.78223 34.0407 8.7002L37.7497 0.587891L40.8611 14H38.9187L37.4948 7.64551Z" fill="#00D74A"/>
<path d="M44.8956 8.94629H48.4815L47.1632 6.01074C47.087 5.82324 47.0079 5.60938 46.9259 5.36914C46.8438 5.12305 46.7618 4.85059 46.6798 4.55176C46.6095 4.83301 46.5333 5.09668 46.4512 5.34277C46.3751 5.58301 46.296 5.80566 46.2139 6.01074L44.8956 8.94629ZM50.6788 14L49.2198 10.6865H44.1221L42.628 14H40.4307L46.6622 0.623047L52.8848 14H50.6788Z" fill="#00D74A"/>
</svg>
