<svg width="39" height="15" viewBox="0 0 39 15" fill="none" xmlns="http://www.w3.org/2000/svg">
<path d="M8.60449 7.4082H13.7021C13.7021 7.49609 13.7051 7.61914 13.7109 7.77734C13.7285 8.19336 13.7373 8.47461 13.7373 8.62109C13.7373 10.4316 13.2188 11.8379 12.1816 12.8398C11.1445 13.8418 9.68262 14.3428 7.7959 14.3428C6.74121 14.3428 5.80078 14.1875 4.97461 13.877C4.14844 13.5664 3.4248 13.0977 2.80371 12.4707C2.19434 11.8496 1.72559 11.1201 1.39746 10.2822C1.0752 9.44434 0.914062 8.54785 0.914062 7.59277C0.914062 6.62012 1.07812 5.72363 1.40625 4.90332C1.74023 4.08301 2.23242 3.35938 2.88281 2.73242C3.50977 2.11719 4.24512 1.64844 5.08887 1.32617C5.93262 1.00391 6.83496 0.842773 7.7959 0.842773C8.80957 0.842773 9.71484 1.02734 10.5117 1.39648C11.3145 1.76562 12.0293 2.33105 12.6562 3.09277L11.127 4.24414C10.6934 3.74023 10.2041 3.36523 9.65918 3.11914C9.11426 2.87305 8.50488 2.75 7.83105 2.75C6.43652 2.75 5.29688 3.19824 4.41211 4.09473C3.5332 4.98535 3.09375 6.14551 3.09375 7.5752C3.09375 9.02832 3.5332 10.209 4.41211 11.1172C5.29688 12.0195 6.44238 12.4707 7.84863 12.4707C9.04395 12.4707 9.98438 12.1924 10.6699 11.6357C11.3555 11.0791 11.6982 10.3203 11.6982 9.35938V9.1748H8.60449V7.4082Z" fill="#00D74A"/>
<path d="M14.8451 11.4248L16.515 10.6514C16.6732 11.2256 16.9632 11.665 17.3851 11.9697C17.807 12.2686 18.3461 12.418 19.0023 12.418C19.6234 12.418 20.1156 12.2451 20.4789 11.8994C20.848 11.5537 21.0326 11.0908 21.0326 10.5107C21.0326 9.75488 20.4056 9.08105 19.1517 8.48926C18.9759 8.40137 18.8412 8.33691 18.7474 8.2959C17.3295 7.60449 16.3832 6.98047 15.9086 6.42383C15.4398 5.86133 15.2054 5.17578 15.2054 4.36719C15.2054 3.31836 15.5599 2.46875 16.2689 1.81836C16.9837 1.16797 17.9183 0.842773 19.0726 0.842773C20.0218 0.842773 20.8158 1.02734 21.4545 1.39648C22.0931 1.75977 22.5355 2.28418 22.7816 2.96973L21.1468 3.81348C20.889 3.40918 20.6048 3.11328 20.2943 2.92578C19.9896 2.73828 19.638 2.64453 19.2396 2.64453C18.6771 2.64453 18.2289 2.79102 17.8949 3.08398C17.5668 3.37695 17.4027 3.76953 17.4027 4.26172C17.4027 5.03516 18.1293 5.75586 19.5824 6.42383C19.6937 6.47656 19.7816 6.51758 19.8461 6.54688C21.1175 7.13281 21.9906 7.70703 22.4652 8.26953C22.9398 8.82617 23.1771 9.52344 23.1771 10.3613C23.1771 11.5801 22.7933 12.5498 22.0257 13.2705C21.2582 13.9854 20.2211 14.3428 18.9144 14.3428C17.8187 14.3428 16.9193 14.0908 16.2162 13.5869C15.5189 13.083 15.0619 12.3623 14.8451 11.4248Z" fill="#00D74A"/>
<path d="M35.5964 7.64551C35.573 7.5459 35.5349 7.27051 35.4821 6.81934C35.4353 6.44434 35.3943 6.13379 35.3591 5.8877C35.3064 6.18066 35.2302 6.47363 35.1306 6.7666C35.0368 7.05957 34.9167 7.3584 34.7702 7.66309L31.404 14.5186L28.0378 7.52246C27.8972 7.23535 27.7741 6.95703 27.6687 6.6875C27.5691 6.41797 27.4812 6.15137 27.405 5.8877C27.3991 6.15723 27.3757 6.44141 27.3347 6.74023C27.2995 7.0332 27.2439 7.34082 27.1677 7.66309L25.7878 14H23.863L26.904 0.587891L30.7009 8.70898C30.7595 8.83789 30.8474 9.05176 30.9646 9.35059C31.0876 9.64941 31.2341 10.0186 31.404 10.458C31.5271 10.0889 31.7204 9.62012 31.9841 9.05176C32.0544 8.89941 32.1071 8.78223 32.1423 8.7002L35.8513 0.587891L38.9626 14H37.0202L35.5964 7.64551Z" fill="#00D74A"/>
</svg>
