<svg width="32" height="33" viewBox="0 0 32 33" fill="none" xmlns="http://www.w3.org/2000/svg">
<path d="M16.0002 17.6668L26.0002 32.6668H6.00019L16.0002 17.6668ZM16.0002 23.6668L12.2335 29.3334H19.7669L16.0002 23.6668ZM14.2335 13.6001C13.9879 13.3712 13.7909 13.0952 13.6543 12.7886C13.5176 12.4819 13.4441 12.1508 13.4382 11.8152C13.4323 11.4795 13.494 11.1461 13.6198 10.8348C13.7455 10.5235 13.9327 10.2407 14.1701 10.0033C14.4075 9.7659 14.6902 9.57876 15.0015 9.45302C15.3128 9.32728 15.6463 9.26553 15.9819 9.27146C16.3176 9.27738 16.6487 9.35085 16.9553 9.48749C17.262 9.62413 17.538 9.82114 17.7669 10.0668C18.2085 10.5407 18.4489 11.1675 18.4374 11.8152C18.426 12.4628 18.1636 13.0808 17.7056 13.5388C17.2476 13.9969 16.6296 14.2592 15.9819 14.2707C15.3343 14.2821 14.7074 14.0417 14.2335 13.6001ZM4.80186 0.638428L7.16019 2.99676C4.81629 5.34092 3.49953 8.52013 3.49953 11.8351C3.49953 15.1501 4.81629 18.3293 7.16019 20.6734L4.80186 23.0318C3.33136 21.5615 2.16488 19.8159 1.36903 17.8948C0.573191 15.9736 0.163574 13.9146 0.163574 11.8351C0.163574 9.75564 0.573191 7.69655 1.36903 5.77541C2.16488 3.85427 3.33136 2.10872 4.80186 0.638428ZM27.1952 0.638428C28.6657 2.10872 29.8322 3.85427 30.628 5.77541C31.4239 7.69655 31.8335 9.75564 31.8335 11.8351C31.8335 13.9146 31.4239 15.9736 30.628 17.8948C29.8322 19.8159 28.6657 21.5615 27.1952 23.0318L24.8369 20.6734C27.1808 18.3293 28.4975 15.1501 28.4975 11.8351C28.4975 8.52013 27.1808 5.34092 24.8369 2.99676L27.1952 0.638428ZM9.51686 5.35176L11.8735 7.70843C11.3318 8.25011 10.9021 8.8932 10.6089 9.60097C10.3157 10.3087 10.1648 11.0673 10.1648 11.8334C10.1648 12.5995 10.3157 13.3581 10.6089 14.0659C10.9021 14.7737 11.3318 15.4167 11.8735 15.9584L9.51686 18.3151C7.79786 16.596 6.83215 14.2645 6.83215 11.8334C6.83215 9.40235 7.79786 7.07083 9.51686 5.35176ZM22.4802 5.35176C24.1992 7.07083 25.1649 9.40235 25.1649 11.8334C25.1649 14.2645 24.1992 16.596 22.4802 18.3151L20.1235 15.9584C20.6653 15.4167 21.095 14.7737 21.3882 14.0659C21.6814 13.3581 21.8323 12.5995 21.8323 11.8334C21.8323 11.0673 21.6814 10.3087 21.3882 9.60097C21.095 8.8932 20.6653 8.25011 20.1235 7.70843L22.4802 5.35176Z" fill="#00D74A"/>
</svg>
