<svg width="34" height="34" viewBox="0 0 34 34" fill="none" xmlns="http://www.w3.org/2000/svg">
<path d="M17 33.6666C7.79498 33.6666 0.333313 26.2049 0.333313 16.9999C0.333313 7.79492 7.79498 0.333252 17 0.333252C26.205 0.333252 33.6666 7.79492 33.6666 16.9999C33.6666 26.2049 26.205 33.6666 17 33.6666ZM13.1833 29.7783C11.539 26.2904 10.5864 22.5169 10.3783 18.6666H3.76998C4.09429 21.2314 5.15652 23.6469 6.82759 25.6194C8.49867 27.592 10.7067 29.0368 13.1833 29.7783ZM13.7166 18.6666C13.9683 22.7316 15.13 26.5499 17 29.9199C18.9205 26.4608 20.0424 22.6157 20.2833 18.6666H13.7166ZM30.23 18.6666H23.6216C23.4135 22.5169 22.461 26.2904 20.8166 29.7783C23.2933 29.0368 25.5013 27.592 27.1724 25.6194C28.8434 23.6469 29.9057 21.2314 30.23 18.6666ZM3.76998 15.3333H10.3783C10.5864 11.4829 11.539 7.7094 13.1833 4.22159C10.7067 4.96305 8.49867 6.40784 6.82759 8.38041C5.15652 10.353 4.09429 12.7684 3.76998 15.3333ZM13.7183 15.3333H20.2816C20.0412 11.3843 18.9199 7.53914 17 4.07992C15.0794 7.539 13.9576 11.3841 13.7166 15.3333H13.7183ZM20.8166 4.22159C22.461 7.7094 23.4135 11.4829 23.6216 15.3333H30.23C29.9057 12.7684 28.8434 10.353 27.1724 8.38041C25.5013 6.40784 23.2933 4.96305 20.8166 4.22159Z" fill="#00D74A"/>
</svg>
