<svg width="30" height="37" viewBox="0 0 30 37" fill="none" xmlns="http://www.w3.org/2000/svg">
<path d="M15 36.5467L4.39334 25.94C2.29557 23.8422 0.866978 21.1695 0.288214 18.2598C-0.290549 15.3501 0.00651141 12.3341 1.14183 9.5932C2.27715 6.85232 4.19974 4.50965 6.66647 2.86144C9.13321 1.21323 12.0333 0.333496 15 0.333496C17.9667 0.333496 20.8668 1.21323 23.3335 2.86144C25.8003 4.50965 27.7229 6.85232 28.8582 9.5932C29.9935 12.3341 30.2906 15.3501 29.7118 18.2598C29.133 21.1695 27.7044 23.8422 25.6067 25.94L15 36.5467ZM23.25 23.5834C24.8815 21.9517 25.9925 19.8729 26.4426 17.6098C26.8927 15.3467 26.6615 13.001 25.7785 10.8693C24.8954 8.73756 23.4001 6.91554 21.4815 5.63365C19.563 4.35175 17.3074 3.66754 15 3.66754C12.6926 3.66754 10.437 4.35175 8.51848 5.63365C6.59993 6.91554 5.10458 8.73756 4.22153 10.8693C3.33847 13.001 3.10736 15.3467 3.55742 17.6098C4.00749 19.8729 5.11851 21.9517 6.75001 23.5834L15 31.8334L23.25 23.5834ZM15 18.6667C14.116 18.6667 13.2681 18.3155 12.643 17.6904C12.0179 17.0653 11.6667 16.2174 11.6667 15.3334C11.6667 14.4493 12.0179 13.6015 12.643 12.9763C13.2681 12.3512 14.116 12 15 12C15.8841 12 16.7319 12.3512 17.357 12.9763C17.9821 13.6015 18.3333 14.4493 18.3333 15.3334C18.3333 16.2174 17.9821 17.0653 17.357 17.6904C16.7319 18.3155 15.8841 18.6667 15 18.6667Z" fill="#00D74A"/>
</svg>
