<svg width="20" height="20" viewBox="0 0 20 20" fill="none" xmlns="http://www.w3.org/2000/svg">
<g clip-path="url(#clip0_1_385)">
<path d="M5.83334 3.33329V16.6666H14.1667V3.33329H5.83334ZM5.00001 1.66663H15C15.221 1.66663 15.433 1.75442 15.5893 1.9107C15.7455 2.06698 15.8333 2.27895 15.8333 2.49996V17.5C15.8333 17.721 15.7455 17.9329 15.5893 18.0892C15.433 18.2455 15.221 18.3333 15 18.3333H5.00001C4.77899 18.3333 4.56703 18.2455 4.41075 18.0892C4.25447 17.9329 4.16667 17.721 4.16667 17.5V2.49996C4.16667 2.27895 4.25447 2.06698 4.41075 1.9107C4.56703 1.75442 4.77899 1.66663 5.00001 1.66663ZM10 14.1666C10.221 14.1666 10.433 14.2544 10.5893 14.4107C10.7455 14.567 10.8333 14.7789 10.8333 15C10.8333 15.221 10.7455 15.4329 10.5893 15.5892C10.433 15.7455 10.221 15.8333 10 15.8333C9.77899 15.8333 9.56703 15.7455 9.41075 15.5892C9.25447 15.4329 9.16667 15.221 9.16667 15C9.16667 14.7789 9.25447 14.567 9.41075 14.4107C9.56703 14.2544 9.77899 14.1666 10 14.1666Z" fill="black"/>
</g>
<defs>
<clipPath id="clip0_1_385">
<rect width="20" height="20" fill="white"/>
</clipPath>
</defs>
</svg>
