<svg width="34" height="30" viewBox="0 0 34 30" fill="none" xmlns="http://www.w3.org/2000/svg">
<path d="M1.99992 0H31.9999C32.4419 0 32.8659 0.175595 33.1784 0.488155C33.491 0.800716 33.6666 1.22464 33.6666 1.66667V28.3333C33.6666 28.7754 33.491 29.1993 33.1784 29.5118C32.8659 29.8244 32.4419 30 31.9999 30H1.99992C1.55789 30 1.13397 29.8244 0.821407 29.5118C0.508847 29.1993 0.333252 28.7754 0.333252 28.3333V1.66667C0.333252 1.22464 0.508847 0.800716 0.821407 0.488155C1.13397 0.175595 1.55789 0 1.99992 0ZM30.3333 13.3333H3.66659V26.6667H30.3333V13.3333ZM30.3333 10V3.33333H3.66659V10H30.3333ZM11.9999 5H15.3333V8.33333H11.9999V5ZM5.33325 5H8.66659V8.33333H5.33325V5Z" fill="#00D74A"/>
</svg>
