<svg width="24" height="34" viewBox="0 0 24 34" fill="none" xmlns="http://www.w3.org/2000/svg">
<path d="M3.66683 3.66671V30.3334H20.3335V3.66671H3.66683ZM2.00016 0.333374H22.0002C22.4422 0.333374 22.8661 0.508969 23.1787 0.821529C23.4912 1.13409 23.6668 1.55801 23.6668 2.00004V32C23.6668 32.4421 23.4912 32.866 23.1787 33.1786C22.8661 33.4911 22.4422 33.6667 22.0002 33.6667H2.00016C1.55814 33.6667 1.13421 33.4911 0.821652 33.1786C0.509091 32.866 0.333496 32.4421 0.333496 32V2.00004C0.333496 1.55801 0.509091 1.13409 0.821652 0.821529C1.13421 0.508969 1.55814 0.333374 2.00016 0.333374ZM12.0002 25.3334C12.4422 25.3334 12.8661 25.509 13.1787 25.8215C13.4912 26.1341 13.6668 26.558 13.6668 27C13.6668 27.4421 13.4912 27.866 13.1787 28.1786C12.8661 28.4911 12.4422 28.6667 12.0002 28.6667C11.5581 28.6667 11.1342 28.4911 10.8217 28.1786C10.5091 27.866 10.3335 27.4421 10.3335 27C10.3335 26.558 10.5091 26.1341 10.8217 25.8215C11.1342 25.509 11.5581 25.3334 12.0002 25.3334Z" fill="#00D74A"/>
</svg>
