<svg width="20" height="20" viewBox="0 0 20 20" fill="none" xmlns="http://www.w3.org/2000/svg">
<g clip-path="url(#clip0_1_394)">
<path d="M12.845 4.16667H17.5067C17.9633 4.16667 18.3333 4.5375 18.3333 5V16.6667C18.3333 17.1267 17.9542 17.5 17.5067 17.5H2.49333C2.38427 17.4998 2.27633 17.478 2.1757 17.436C2.07506 17.394 1.98372 17.3325 1.90692 17.255C1.83011 17.1776 1.76935 17.0858 1.72812 16.9848C1.68689 16.8838 1.66601 16.7757 1.66667 16.6667V5C1.66667 4.54 2.04583 4.16667 2.49333 4.16667H7.155L5.04167 2.05333L6.22 0.875L9.51166 4.16667H10.4883L13.78 0.875L14.9583 2.05333L12.845 4.16667ZM3.33333 5.83333V15.8333H16.6667V5.83333H3.33333Z" fill="black"/>
</g>
<defs>
<clipPath id="clip0_1_394">
<rect width="20" height="20" fill="white"/>
</clipPath>
</defs>
</svg>
