<svg width="38" height="30" viewBox="0 0 38 30" fill="none" xmlns="http://www.w3.org/2000/svg">
<path d="M18.9999 0C26.1399 0 32.6999 2.495 37.8499 6.66L18.9999 30L0.149902 6.66167C5.2999 2.495 11.8566 0 18.9999 0ZM18.9999 11.6667C15.8366 11.6667 12.8616 12.4667 10.2649 13.8783L18.9982 24.695L27.7349 13.8783C25.1382 12.4667 22.1632 11.6667 18.9999 11.6667ZM18.9999 3.33333C13.9532 3.33333 9.12823 4.73667 4.96657 7.32L8.1399 11.2483C11.3332 9.395 15.0416 8.33333 18.9999 8.33333C22.9582 8.33333 26.6666 9.395 29.8599 11.2483L33.0332 7.31667C28.8699 4.735 24.0449 3.33333 18.9999 3.33333Z" fill="#00D74A"/>
</svg>
