<svg width="150" height="36" viewBox="0 0 150 36" fill="none" xmlns="http://www.w3.org/2000/svg">
<path d="M56.113 26.474H52.6528V23.8496H52.5951C51.7878 25.6753 50.2883 26.7022 47.9815 26.7022C44.6943 26.7022 42.6182 24.5913 42.6182 21.1111V11.4122H46.1361V20.4265C46.1361 22.5945 47.1742 23.7355 49.1926 23.7355C51.2687 23.7355 52.5375 22.3092 52.5375 20.0842V11.4693H56.113V26.474Z" fill="#475463"/>
<path d="M57.4971 24.3632L65.3979 14.2649V14.2079H57.6125V11.4694H69.4925V13.8085L61.9377 23.6786V23.7356H69.6078V26.4741H57.4971V24.3632Z" fill="#475463"/>
<path d="M70.9343 11.4693H74.3368V14.0937H74.3945C75.0289 12.3251 76.6436 11.1841 78.7197 11.1841C80.8535 11.1841 82.4106 12.2681 82.9297 14.2079H82.9873C83.737 12.3251 85.5248 11.1841 87.7163 11.1841C90.7151 11.1841 92.6759 13.1809 92.6759 16.2047V26.4741H89.1004V17.0605C89.1004 15.2348 88.12 14.1508 86.3899 14.1508C84.6598 14.1508 83.5064 15.406 83.5064 17.1746V26.4741H80.0462V16.8893C80.0462 15.2348 79.0081 14.2079 77.3357 14.2079C75.6056 14.2079 74.3945 15.5201 74.3945 17.3457V26.5312H70.9343V11.4693Z" fill="#475463"/>
<path d="M93.8293 19.0002C93.8293 14.1508 96.7705 11.1841 101.153 11.1841C105.536 11.1841 108.478 14.1508 108.478 19.0002C108.478 23.8497 105.594 26.8164 101.153 26.8164C96.7128 26.7594 93.8293 23.8497 93.8293 19.0002ZM104.902 19.0002C104.902 15.8053 103.46 13.9796 101.153 13.9796C98.9043 13.9796 97.4048 15.8053 97.4048 19.0002C97.4048 22.1952 98.8466 24.0208 101.153 24.0208C103.403 24.0208 104.902 22.1952 104.902 19.0002Z" fill="#475463"/>
<path d="M113.264 23.9067H113.206V26.474H109.689V6.04932H113.264V14.0366H113.322C114.187 12.268 115.917 11.184 118.051 11.184C121.857 11.184 124.279 14.1507 124.279 18.9431C124.279 23.7355 121.857 26.7022 118.051 26.7022C115.859 26.7022 114.187 25.6753 113.264 23.9067ZM113.264 19.0002C113.264 21.9669 114.821 23.8496 117.013 23.8496C119.32 23.8496 120.704 21.9669 120.704 19.0002C120.704 16.0335 119.262 14.1507 117.013 14.1507C114.821 14.1507 113.264 16.0905 113.264 19.0002Z" fill="#475463"/>
<path d="M125.375 7.30452C125.375 6.22053 126.24 5.36475 127.336 5.36475C128.431 5.36475 129.296 6.22053 129.296 7.30452C129.296 8.33147 128.431 9.2443 127.336 9.2443C126.24 9.2443 125.375 8.33147 125.375 7.30452ZM125.548 11.4693H129.123V26.4741H125.548V11.4693Z" fill="#475463"/>
<path d="M131.084 6.04932H134.66V26.474H131.084V6.04932Z" fill="#475463"/>
<path d="M149.885 22.024C149.423 24.8766 146.77 26.8164 143.195 26.8164C138.639 26.8164 135.871 23.8497 135.871 19.0573C135.871 14.322 138.639 11.1841 143.022 11.1841C147.347 11.1841 150 14.1508 150 18.715V19.856H139.389V20.0842C139.389 22.4804 140.888 24.0779 143.195 24.0779C144.867 24.0779 146.136 23.2792 146.482 22.024H149.885ZM139.446 17.5169H146.54C146.482 15.406 145.098 13.9226 143.022 13.9226C141.003 13.9226 139.562 15.406 139.446 17.5169Z" fill="#475463"/>
<path d="M6.22855 31.0953C7.38195 32.0652 8.6507 32.921 9.97711 33.6056V2.91144C8.59303 3.59607 7.32428 4.45186 6.22855 5.42174V31.0953ZM4.15243 7.58973C1.78795 10.4994 0.40387 14.2078 0.40387 18.2585C0.40387 22.3092 1.78795 26.0176 4.15243 28.9273V7.58973ZM16.1478 35.3172C14.7061 35.203 13.322 34.9178 12.0532 34.4614V2.05566C13.3796 1.59924 14.7637 1.31398 16.1478 1.19987V35.3172ZM18.2239 35.3742C27.5665 35.0889 35.0059 27.558 35.0059 18.2585C35.0059 8.95899 27.5088 1.42808 18.2239 1.14282V35.3742Z" fill="#00D74A"/>
</svg>
