<svg width="20" height="20" viewBox="0 0 20 20" fill="none" xmlns="http://www.w3.org/2000/svg">
<g clip-path="url(#clip0_1_136)">
<path d="M15.0259 13.8475L18.595 17.4158L17.4159 18.595L13.8475 15.0258C12.5198 16.0901 10.8684 16.669 9.16669 16.6666C5.02669 16.6666 1.66669 13.3066 1.66669 9.16663C1.66669 5.02663 5.02669 1.66663 9.16669 1.66663C13.3067 1.66663 16.6667 5.02663 16.6667 9.16663C16.6691 10.8683 16.0902 12.5197 15.0259 13.8475ZM13.3542 13.2291C14.4118 12.1415 15.0024 10.6837 15 9.16663C15 5.94329 12.3892 3.33329 9.16669 3.33329C5.94335 3.33329 3.33335 5.94329 3.33335 9.16663C3.33335 12.3891 5.94335 15 9.16669 15C10.6837 15.0023 12.1416 14.4117 13.2292 13.3541L13.3542 13.2291Z" fill="black"/>
</g>
<defs>
<clipPath id="clip0_1_136">
<rect width="20" height="20" fill="white"/>
</clipPath>
</defs>
</svg>
